<svg width="390" height="127" viewBox="0 0 390 127" fill="none" xmlns="http://www.w3.org/2000/svg">
<path d="M79.2142 45C79.2142 66.8903 63.2992 83.5 44.9999 83.5C26.7007 83.5 10.7856 66.8903 10.7856 45C10.7856 23.1097 26.7007 6.5 44.9999 6.5C63.2992 6.5 79.2142 23.1097 79.2142 45Z" stroke="#C4C4C4" stroke-width="13"/>
<path d="M0 50C0 47.2386 2.23858 45 5 45H85C87.7614 45 90 47.2386 90 50V81.4286C90 106.281 69.8528 126.429 45 126.429C20.1472 126.429 0 106.281 0 81.4286V50Z" fill="#22A701"/>
<path d="M0 50C0 47.2386 2.23858 45 5 45H45V126.429C20.1472 126.429 0 106.281 0 81.4286V50Z" fill="#56C23A"/>
<line x1="20.6786" y1="77.3829" x2="41.0868" y2="97.7911" stroke="white" stroke-width="10"/>
<line x1="34.1599" y1="97.6524" x2="67.3231" y2="67.0402" stroke="white" stroke-width="10"/>
<path d="M134.46 83.2727H137.699C137.55 79.103 133.705 75.9858 128.361 75.9858C123.071 75.9858 118.915 79.0625 118.915 83.7045C118.915 87.429 121.614 89.642 125.932 90.8835L129.332 91.8551C132.247 92.6648 134.838 93.6903 134.838 96.4432C134.838 99.4659 131.923 101.463 128.091 101.463C124.798 101.463 121.884 100.006 121.614 96.875H118.159C118.483 101.409 122.153 104.486 128.091 104.486C134.46 104.486 138.077 100.977 138.077 96.4972C138.077 91.3153 133.165 89.642 130.304 88.8864L127.497 88.1307C125.446 87.5909 122.153 86.5114 122.153 83.5426C122.153 80.8977 124.582 78.9545 128.253 78.9545C131.599 78.9545 134.136 80.5469 134.46 83.2727ZM158.693 83.2727H161.931C161.783 79.103 157.937 75.9858 152.593 75.9858C147.303 75.9858 143.147 79.0625 143.147 83.7045C143.147 87.429 145.846 89.642 150.164 90.8835L153.565 91.8551C156.48 92.6648 159.07 93.6903 159.07 96.4432C159.07 99.4659 156.156 101.463 152.323 101.463C149.031 101.463 146.116 100.006 145.846 96.875H142.392C142.715 101.409 146.386 104.486 152.323 104.486C158.693 104.486 162.309 100.977 162.309 96.4972C162.309 91.3153 157.397 89.642 154.536 88.8864L151.73 88.1307C149.678 87.5909 146.386 86.5114 146.386 83.5426C146.386 80.8977 148.815 78.9545 152.485 78.9545C155.832 78.9545 158.369 80.5469 158.693 83.2727ZM167.811 104H184.005V101.031H171.158V76.3636H167.811V104ZM199.874 104H216.769V101.031H203.221V91.6392H215.689V88.6705H203.221V79.3324H216.553V76.3636H199.874V104ZM225.338 91.5312C225.338 87.9148 227.578 85.8636 230.627 85.8636C233.583 85.8636 235.377 87.7933 235.377 91.0455V104H238.562V90.8295C238.562 85.5398 235.742 83.0028 231.545 83.0028C228.414 83.0028 226.471 84.4062 225.5 86.5114H225.23V83.2727H222.153V104H225.338V91.5312ZM252.802 104.432C257.39 104.432 260.413 101.625 260.953 97.9545H257.768C257.174 100.222 255.285 101.571 252.802 101.571C249.024 101.571 246.595 98.4403 246.595 93.6364C246.595 88.9403 249.078 85.8636 252.802 85.8636C255.609 85.8636 257.282 87.5909 257.768 89.4801H260.953C260.413 85.5938 257.12 83.0028 252.748 83.0028C247.134 83.0028 243.41 87.429 243.41 93.7443C243.41 99.9517 246.972 104.432 252.802 104.432ZM265.608 104H268.793V90.8835C268.793 88.0767 271.006 86.0256 274.029 86.0256C274.879 86.0256 275.756 86.1875 275.972 86.2415V83.0028C275.607 82.9759 274.771 82.9489 274.298 82.9489C271.816 82.9489 269.656 84.3523 268.901 86.4034H268.685V83.2727H265.608V104ZM282.429 111.773C285.303 111.773 287.327 110.248 288.528 107.023L297.354 83.3267L293.872 83.2727L288.15 99.7898H287.934L282.213 83.2727H278.758L286.423 104.108L285.829 105.727C284.669 108.885 283.238 109.182 280.917 108.588L280.108 111.395C280.432 111.557 281.349 111.773 282.429 111.773ZM301.567 111.773H304.752V100.815H305.022C305.723 101.949 307.073 104.432 311.067 104.432C316.249 104.432 319.865 100.276 319.865 93.6903C319.865 87.1591 316.249 83.0028 311.013 83.0028C306.965 83.0028 305.723 85.4858 305.022 86.5653H304.644V83.2727H301.567V111.773ZM304.698 93.6364C304.698 88.9943 306.749 85.8636 310.635 85.8636C314.684 85.8636 316.681 89.2642 316.681 93.6364C316.681 98.0625 314.63 101.571 310.635 101.571C306.803 101.571 304.698 98.3324 304.698 93.6364ZM333.738 83.2727H329.311V78.3068H326.127V83.2727H322.996V85.9716H326.127V98.9261C326.127 102.543 329.042 104.27 331.74 104.27C332.928 104.27 333.684 104.054 334.115 103.892L333.468 101.031C333.198 101.085 332.766 101.193 332.064 101.193C330.661 101.193 329.311 100.761 329.311 98.0625V85.9716H333.738V83.2727ZM338.528 104H341.713V83.2727H338.528V104ZM340.147 79.8182C341.389 79.8182 342.414 78.8466 342.414 77.6591C342.414 76.4716 341.389 75.5 340.147 75.5C338.906 75.5 337.88 76.4716 337.88 77.6591C337.88 78.8466 338.906 79.8182 340.147 79.8182ZM355.966 104.432C361.58 104.432 365.358 100.168 365.358 93.7443C365.358 87.267 361.58 83.0028 355.966 83.0028C350.352 83.0028 346.574 87.267 346.574 93.7443C346.574 100.168 350.352 104.432 355.966 104.432ZM355.966 101.571C351.702 101.571 349.759 97.9006 349.759 93.7443C349.759 89.5881 351.702 85.8636 355.966 85.8636C360.23 85.8636 362.173 89.5881 362.173 93.7443C362.173 97.9006 360.23 101.571 355.966 101.571ZM373.404 91.5312C373.404 87.9148 375.644 85.8636 378.694 85.8636C381.649 85.8636 383.444 87.7933 383.444 91.0455V104H386.629V90.8295C386.629 85.5398 383.808 83.0028 379.612 83.0028C376.481 83.0028 374.538 84.4062 373.566 86.5114H373.296V83.2727H370.219V104H373.404V91.5312Z" fill="#939393"/>
<path d="M145.295 29.8409H154.727C154.591 21.5455 147.773 15.8182 137.409 15.8182C127.205 15.8182 119.727 21.4545 119.773 29.9091C119.75 36.7727 124.591 40.7045 132.455 42.5909L137.523 43.8636C142.591 45.0909 145.409 46.5455 145.432 49.6818C145.409 53.0909 142.182 55.4091 137.182 55.4091C132.068 55.4091 128.386 53.0455 128.068 48.3864H118.545C118.795 58.4545 126 63.6591 137.295 63.6591C148.659 63.6591 155.341 58.2273 155.364 49.7045C155.341 41.9545 149.5 37.8409 141.409 36.0227L137.227 35.0227C133.182 34.0909 129.795 32.5909 129.864 29.25C129.864 26.25 132.523 24.0455 137.341 24.0455C142.045 24.0455 144.932 26.1818 145.295 29.8409ZM163.263 63H194.717V54.8864H173.104V43.7727H193.013V35.6591H173.104V24.5682H194.627V16.4545H163.263V63ZM244.799 32.75C243.503 22 235.367 15.8182 224.594 15.8182C212.299 15.8182 202.912 24.5 202.912 39.7273C202.912 54.9091 212.14 63.6364 224.594 63.6364C236.526 63.6364 243.73 55.7045 244.799 47.1364L234.844 47.0909C233.912 52.0682 230.003 54.9318 224.753 54.9318C217.685 54.9318 212.89 49.6818 212.89 39.7273C212.89 30.0455 217.617 24.5227 224.821 24.5227C230.208 24.5227 234.094 27.6364 234.844 32.75H244.799ZM281.885 16.4545V45.8409C281.885 51.1591 278.158 55 272.431 55C266.726 55 262.976 51.1591 262.976 45.8409V16.4545H253.135V46.6818C253.135 56.8636 260.817 63.6591 272.431 63.6591C283.999 63.6591 291.726 56.8636 291.726 46.6818V16.4545H281.885ZM301.103 63H310.944V46.5H318.126L326.944 63H337.807L327.921 44.9091C333.217 42.6364 336.148 38.0227 336.148 31.6591C336.148 22.4091 330.035 16.4545 319.467 16.4545H301.103V63ZM310.944 38.5909V24.5H317.58C323.262 24.5 326.012 27.0227 326.012 31.6591C326.012 36.2727 323.262 38.5909 317.626 38.5909H310.944ZM344.383 63H375.837V54.8864H354.224V43.7727H374.133V35.6591H354.224V24.5682H375.747V16.4545H344.383V63Z" fill="black"/>
</svg>
