<?xml version="1.0" encoding="iso-8859-1"?>
<!-- Generator: Adobe Illustrator 19.0.0, SVG Export Plug-In . SVG Version: 6.00 Build 0)  -->
<svg version="1.1" id="Layer_1" xmlns="http://www.w3.org/2000/svg" xmlns:xlink="http://www.w3.org/1999/xlink" x="0px" y="0px"
	 viewBox="0 0 512 512" style="enable-background:new 0 0 512 512;" xml:space="preserve">
<path style="fill:#FEE187;" d="M260.243,15.187v65.074c-9.211-5.015-19.902-7.659-31.25-7.105
	c-29.71,1.45-54.079,25.295-56.121,54.969c-2.38,34.608,24.988,63.421,59.087,63.421c10.242,0,19.877-2.602,28.282-7.178v65.074
	h59.87c-1.765-6.669-2.41-13.792-1.677-21.167c2.851-28.677,26.514-51.417,55.281-53.144c34.368-2.062,62.885,25.199,62.885,59.122
	c0,5.252-0.691,10.341-1.974,15.189h59.87V70.714c0-30.666-24.86-55.527-55.527-55.527H260.243z"/>
<g>
	<path style="fill:#FFC61B;" d="M494.496,264.629h-59.87c-4.714,0-9.16-2.189-12.035-5.923c-2.875-3.735-3.853-8.593-2.649-13.149
		c0.975-3.683,1.469-7.486,1.469-11.304c0-24.286-19.757-44.044-44.044-44.044c-0.908,0-1.832,0.027-2.743,0.082
		c-21.306,1.279-38.966,18.255-41.077,39.487c-0.503,5.048-0.155,10.071,1.033,14.941c0.486,1.487,0.749,3.072,0.749,4.722
		c0,8.388-6.799,15.187-15.187,15.187c-0.009,0-0.02,0-0.03,0h-59.87c-8.388,0-15.187-6.799-15.187-15.187v-43.87
		c-4.31,0.77-8.696,1.162-13.096,1.162c-20.549,0-40.377-8.617-54.406-23.644c-14.226-15.238-21.268-35.127-19.833-56.007
		c2.583-37.555,32.905-67.261,70.532-69.097c5.686-0.275,11.286,0.087,16.802,1.072v-43.87C245.052,6.799,251.852,0,260.24,0
		h178.727c38.991,0,70.714,31.722,70.714,70.714v178.727C509.684,257.829,502.885,264.629,494.496,264.629z M451.788,234.254h27.521
		V70.714c0-22.244-18.096-40.339-40.339-40.339H275.43v49.886c0,5.358-2.823,10.32-7.43,13.057s-10.314,2.843-15.02,0.282
		c-7.045-3.836-15.083-5.682-23.246-5.273c-21.887,1.068-40.207,19.007-41.709,40.841c-0.852,12.39,3.314,24.178,11.732,33.195
		c8.426,9.026,19.864,13.997,32.203,13.997c7.349,0,14.618-1.842,21.019-5.328c4.705-2.564,10.414-2.456,15.02,0.281
		s7.43,7.699,7.43,13.057v49.886h27.52c0-2.488,0.125-4.983,0.372-7.48c3.572-35.921,33.444-64.641,69.484-66.802
		c1.516-0.091,3.051-0.137,4.562-0.137C418.403,159.834,451.788,193.217,451.788,234.254
		C451.788,234.252,451.788,234.252,451.788,234.254z"/>
	<path style="fill:#FFC61B;" d="M134.719,352.145c-1.763,0-3.536-0.061-5.316-0.184c-37.555-2.583-67.261-32.907-69.097-70.532
		c-0.668-13.713,2.421-27.286,8.935-39.252c4.011-7.366,13.234-10.086,20.6-6.076c7.367,4.011,10.087,13.234,6.076,20.6
		c-3.847,7.067-5.671,15.105-5.273,23.246c1.068,21.887,19.007,40.207,40.842,41.709c12.388,0.858,24.177-3.314,33.194-11.732
		c9.026-8.426,13.997-19.864,13.997-32.203c0-7.349-1.842-14.618-5.328-21.019c-4.011-7.367-1.291-16.589,6.075-20.6
		c7.366-4.013,16.589-1.292,20.6,6.075c5.906,10.845,9.027,23.137,9.027,35.545c0,20.549-8.617,40.379-23.644,54.406
		C171.471,345.142,153.639,352.145,134.719,352.145z"/>
	<path style="fill:#FFC61B;" d="M82.58,264.629H17.507c-8.388,0-15.187-6.799-15.187-15.187V70.714C2.319,31.722,34.041,0,73.033,0
		h193.916c8.388,0,15.187,6.799,15.187,15.187s-6.799,15.187-15.187,15.187H73.033c-22.243,0-40.339,18.096-40.339,40.339v163.54
		H82.58c8.388,0,15.187,6.799,15.187,15.187C97.768,257.829,90.968,264.629,82.58,264.629z"/>
	<path style="fill:#FFC61B;" d="M261.116,512H73.033c-38.991,0-70.714-31.722-70.714-70.714V247.37
		c0-8.388,6.799-15.187,15.187-15.187s15.187,6.799,15.187,15.187v193.916c0,22.243,18.096,40.339,40.339,40.339h172.895v-49.886
		c0-5.358,2.823-10.32,7.43-13.057c4.606-2.738,10.314-2.843,15.02-0.283c7.067,3.847,15.111,5.683,23.246,5.273
		c21.887-1.068,40.207-19.007,41.709-40.841c0.852-12.39-3.314-24.178-11.732-33.195c-8.426-9.026-19.864-13.997-32.203-13.997
		c-7.349,0-14.618,1.842-21.021,5.329c-7.364,4.009-16.591,1.291-20.6-6.077c-4.011-7.367-1.291-16.589,6.077-20.6
		c10.845-5.905,23.137-9.026,35.545-9.026c20.549,0,40.377,8.617,54.406,23.644c14.226,15.238,21.268,35.127,19.833,56.007
		c-2.583,37.555-32.905,67.261-70.532,69.097c-5.657,0.273-11.295-0.088-16.802-1.069v43.867
		C276.303,505.201,269.504,512,261.116,512z"/>
</g>
<g>
</g>
<g>
</g>
<g>
</g>
<g>
</g>
<g>
</g>
<g>
</g>
<g>
</g>
<g>
</g>
<g>
</g>
<g>
</g>
<g>
</g>
<g>
</g>
<g>
</g>
<g>
</g>
<g>
</g>
</svg>
