<svg width="33" height="7" viewBox="0 0 33 7" fill="none" xmlns="http://www.w3.org/2000/svg">
<path d="M0.379261 5H3.32812V4.23935H1.30185V3.19744H3.16832V2.43679H1.30185V1.39702H3.3196V0.636364H0.379261V5ZM6.75906 2.66051C6.67809 2.05753 6.19229 1.68466 5.36559 1.68466C4.52823 1.68466 3.97638 2.07244 3.97852 2.70312C3.97638 3.19318 4.28533 3.51065 4.92454 3.63849L5.4913 3.75142C5.77681 3.80895 5.90678 3.91335 5.91104 4.07741C5.90678 4.27131 5.69585 4.4098 5.37837 4.4098C5.05451 4.4098 4.83931 4.27131 4.78391 4.00497L3.89116 4.05185C3.97638 4.67827 4.50906 5.06392 5.37624 5.06392C6.22425 5.06392 6.8315 4.63139 6.83363 3.9858C6.8315 3.51278 6.52255 3.2294 5.88761 3.09943L5.29528 2.98011C4.99059 2.91406 4.87766 2.80966 4.87979 2.65199C4.87766 2.45597 5.09925 2.32812 5.3805 2.32812C5.69585 2.32812 5.88335 2.50071 5.92809 2.71165L6.75906 2.66051ZM9.14595 1.72727H8.53018V0.943182H7.62251V1.72727H7.17507V2.40909H7.62251V4.11364C7.61825 4.75497 8.05504 5.07244 8.71342 5.04474C8.9478 5.03622 9.11399 4.98935 9.20561 4.95952L9.06286 4.28409C9.01811 4.29261 8.92223 4.31392 8.837 4.31392C8.65589 4.31392 8.53018 4.24574 8.53018 3.99432V2.40909H9.14595V1.72727ZM10.6705 5.06179C11.1541 5.06179 11.4673 4.85085 11.6271 4.54616H11.6527V5H12.5135V2.79261C12.5135 2.01278 11.853 1.68466 11.1243 1.68466C10.3402 1.68466 9.82457 2.05966 9.69886 2.65625L10.5384 2.72443C10.6001 2.5071 10.794 2.3473 11.12 2.3473C11.429 2.3473 11.6058 2.50284 11.6058 2.77131V2.78409C11.6058 2.99503 11.3821 3.02273 10.8132 3.07812C10.1655 3.13778 9.58381 3.35511 9.58381 4.08594C9.58381 4.73366 10.0462 5.06179 10.6705 5.06179ZM10.9304 4.43537C10.6513 4.43537 10.451 4.3054 10.451 4.05611C10.451 3.80043 10.6619 3.67472 10.9815 3.62997C11.1797 3.60227 11.5036 3.5554 11.6122 3.48295V3.83026C11.6122 4.1733 11.3288 4.43537 10.9304 4.43537ZM14.9585 1.72727H14.3427V0.943182H13.435V1.72727H12.9876V2.40909H13.435V4.11364C13.4308 4.75497 13.8675 5.07244 14.5259 5.04474C14.7603 5.03622 14.9265 4.98935 15.0181 4.95952L14.8754 4.28409C14.8306 4.29261 14.7347 4.31392 14.6495 4.31392C14.4684 4.31392 14.3427 4.24574 14.3427 3.99432V2.40909H14.9585V1.72727ZM17.006 5.06392C17.8157 5.06392 18.3612 4.66974 18.489 4.0625L17.6495 4.0071C17.5579 4.25639 17.3235 4.38636 17.021 4.38636C16.5671 4.38636 16.2795 4.08594 16.2795 3.59801V3.59588H18.5082V3.34659C18.5082 2.23438 17.8349 1.68466 16.9698 1.68466C16.0067 1.68466 15.3825 2.36861 15.3825 3.37855C15.3825 4.41619 15.9982 5.06392 17.006 5.06392ZM16.2795 3.03338C16.2987 2.66051 16.582 2.36222 16.9847 2.36222C17.3789 2.36222 17.6516 2.64347 17.6538 3.03338H16.2795Z" fill="#274C77"/>
<path d="M21.6871 1.72727H22.0728C22.043 1.06463 21.4698 0.574574 20.658 0.574574C19.8526 0.574574 19.2326 1.05824 19.2326 1.76136C19.2326 2.32173 19.6289 2.6733 20.3129 2.87571L20.8349 3.02912C21.3761 3.18679 21.7468 3.3892 21.7468 3.83452C21.7468 4.35866 21.2717 4.71023 20.6197 4.71023C20.0316 4.71023 19.5714 4.42685 19.5288 3.90909H19.1197C19.1665 4.59943 19.729 5.07457 20.6197 5.07457C21.5657 5.07457 22.1325 4.53977 22.1325 3.84091C22.1325 3.11648 21.5018 2.8267 20.9478 2.67116L20.4876 2.53906C20.0636 2.41974 19.6183 2.20455 19.6183 1.74432C19.6183 1.27557 20.038 0.932528 20.6474 0.932528C21.2248 0.932528 21.6381 1.24148 21.6871 1.72727ZM23.2766 6.22727C23.6857 6.22727 23.9862 5.9929 24.1609 5.51776L25.5479 1.73366L25.1346 1.72727L24.163 4.49929H24.1332L23.1616 1.72727H22.7504L23.9542 5.03196L23.8349 5.36435C23.6538 5.85866 23.3981 5.94602 23.0124 5.82457L22.9102 6.15909C22.9869 6.19531 23.1275 6.22727 23.2766 6.22727ZM26.6671 2.95455C26.6671 2.38352 27.0421 2.03196 27.5577 2.03196C28.0605 2.03196 28.3844 2.36861 28.3844 2.90341V5H28.7637V2.87997C28.7637 2.1044 28.3141 1.68466 27.6536 1.68466C27.1742 1.68466 26.8439 1.90625 26.6905 2.24077H26.6564V1.72727H26.2878V5H26.6671V2.95455ZM31.0408 5.06818C31.7227 5.06818 32.2021 4.63778 32.2894 4.04545H31.9059C31.8185 4.46307 31.4755 4.72088 31.0408 4.72088C30.3995 4.72088 29.9755 4.16264 29.9755 3.36577C29.9755 2.57315 30.4123 2.0277 31.0408 2.0277C31.5075 2.0277 31.8228 2.32812 31.9038 2.69886H32.2873C32.1978 2.09162 31.6907 1.68253 31.0344 1.68253C30.1779 1.68253 29.5941 2.39418 29.5941 3.37855C29.5941 4.3544 30.1609 5.06818 31.0408 5.06818Z" fill="#969696"/>
</svg>
